<?xml version="1.0" standalone="no"?><!DOCTYPE svg PUBLIC "-//W3C//DTD SVG 1.1//EN" "http://www.w3.org/Graphics/SVG/1.1/DTD/svg11.dtd"><svg t="1559637699119" class="icon" style="" viewBox="0 0 1024 1024" version="1.1" xmlns="http://www.w3.org/2000/svg" p-id="1678" xmlns:xlink="http://www.w3.org/1999/xlink" width="200" height="200"><defs><style type="text/css"></style></defs><path d="M845 514.9c-6.9 0-13.9-2.4-19.5-7.2L530.6 254.5c-1.2-1.1-2.3-2.1-3.2-2.9-8.6-8.1-22.1-8.1-30.7 0-0.9 0.9-2 1.9-3.2 2.9l-295 253.2c-12.6 10.8-31.5 9.4-42.3-3.2s-9.4-31.5 3.2-42.3L454.3 209c0.2-0.2 0.8-0.7 1-1 31.7-30.1 81.5-30.1 113.2 0l1 1 294.9 253.2c12.6 10.8 14 29.7 3.2 42.3-5.8 6.8-14.2 10.4-22.6 10.4z" p-id="1679" fill="#2c2c2c"></path><path d="M694.1 846.6h-54.6c-43.5 0-78.9-35.4-78.9-78.9v-85.6c0-10.2-8.7-18.9-18.9-18.9h-54.6c-10.4 0-18.9 8.5-18.9 18.9v85.6c0 43.5-35.4 78.9-78.9 78.9h-58.7c-43.5 0-78.9-35.4-78.9-78.9V491.4c0-16.6 13.4-30 30-30s30 13.4 30 30v276.3c0 10.4 8.5 18.9 18.9 18.9h58.7c10.4 0 18.9-8.5 18.9-18.9v-85.6c0-43.5 35.4-78.9 78.9-78.9h54.6c43.5 0 78.9 35.4 78.9 78.9v85.6c0 10.4 8.5 18.9 18.9 18.9h54.6c10.4 0 18.9-8.5 18.9-18.9V491.4c0-16.6 13.4-30 30-30s30 13.4 30 30v276.3c0 43.5-35.4 78.9-78.9 78.9z" p-id="1680" fill="#2c2c2c"></path></svg>